<svg xmlns="http://www.w3.org/2000/svg" viewBox="0 0 720 420" role="img" aria-labelledby="title desc">
<title id="title">PB-SCEN-AUD-001 safety sign - Audit Log Whitewash</title><desc id="desc">Synthetic lab safety-sign cartoon illustrating Audit Log Whitewash.</desc>
<defs><marker id="arrow" markerWidth="10" markerHeight="8" refX="9" refY="4" orient="auto"><path d="M0,0 L10,4 L0,8 Z" fill="#111"/></marker><pattern id="stripe" width="84" height="84" patternUnits="userSpaceOnUse"><path d="M-20 84 L84 -20 M22 106 L106 22" stroke="#111" stroke-width="18"/></pattern></defs>
<rect width="720" height="420" fill="#111"/><rect x="14" y="14" width="692" height="392" fill="url(#stripe)"/><rect x="38" y="38" width="644" height="344" rx="22" fill="#ffd34d" stroke="#111" stroke-width="8"/><rect x="38" y="38" width="644" height="64" rx="18" fill="#111"/>
<text x="360" y="80" font-family="Arial, Helvetica, sans-serif" font-size="25" font-weight="900" text-anchor="middle" fill="#ffd34d">DANGER: AUDIT LOG WHITEWASH</text>
<text x="64" y="126" font-family="Arial, Helvetica, sans-serif" font-size="17" font-weight="900" fill="#111">PB-SCEN-AUD-001</text><text x="656" y="126" font-family="Arial, Helvetica, sans-serif" font-size="17" font-weight="900" text-anchor="end" fill="#111">SYNTHETIC LAB ONLY</text>
<rect x="120" y="135" width="210" height="160" rx="10" fill="#fff" stroke="#111" stroke-width="6"/><path d="M150 175 h130 M150 210 h125 M150 245 h110" stroke="#b00000" stroke-width="7"/><rect x="390" y="145" width="45" height="125" fill="#e9edf2" stroke="#111" stroke-width="5"/><rect x="375" y="120" width="75" height="38" fill="#fff" stroke="#111" stroke-width="5"/><path d="M435 160 C500 190 500 245 435 270" fill="none" stroke="#fff" stroke-width="24"/><text x="520" y="222" font-family="Arial, Helvetica, sans-serif" font-size="22" font-weight="900" text-anchor="middle" fill="#111">looks clean!</text>
<rect x="55" y="322" width="610" height="42" rx="10" fill="#111"/><text x="360" y="350" font-family="Arial, Helvetica, sans-serif" font-size="21" font-weight="900" text-anchor="middle" fill="#ffd34d">Red flags → Clean-looking log</text>
<text x="360" y="393" font-family="Arial, Helvetica, sans-serif" font-size="13" font-weight="700" text-anchor="middle" fill="#111">Fake-world scenario. No real voucher, person, payment, case, or official workflow.</text></svg>
