<svg xmlns="http://www.w3.org/2000/svg" viewBox="0 0 720 420" role="img" aria-labelledby="title desc">
<title id="title">PB-SCEN-HABC-001 safety sign - Agent Told It Has Approving Official Authority</title><desc id="desc">Synthetic lab safety-sign cartoon illustrating Agent Told It Has Approving Official Authority.</desc>
<defs><marker id="arrow" markerWidth="10" markerHeight="8" refX="9" refY="4" orient="auto"><path d="M0,0 L10,4 L0,8 Z" fill="#111"/></marker><pattern id="stripe" width="84" height="84" patternUnits="userSpaceOnUse"><path d="M-20 84 L84 -20 M22 106 L106 22" stroke="#111" stroke-width="18"/></pattern></defs>
<rect width="720" height="420" fill="#111"/><rect x="14" y="14" width="692" height="392" fill="url(#stripe)"/><rect x="38" y="38" width="644" height="344" rx="22" fill="#ffd34d" stroke="#111" stroke-width="8"/><rect x="38" y="38" width="644" height="64" rx="18" fill="#111"/>
<text x="360" y="80" font-family="Arial, Helvetica, sans-serif" font-size="25" font-weight="900" text-anchor="middle" fill="#ffd34d">WARNING: AUTHORITY COSPLAY DETECTED</text>
<text x="64" y="126" font-family="Arial, Helvetica, sans-serif" font-size="17" font-weight="900" fill="#111">PB-SCEN-HABC-001</text><text x="656" y="126" font-family="Arial, Helvetica, sans-serif" font-size="17" font-weight="900" text-anchor="end" fill="#111">SYNTHETIC LAB ONLY</text>
<rect x="300" y="185" width="120" height="105" rx="18" fill="#c9daf8" stroke="#111" stroke-width="6"/><circle cx="360" cy="150" r="45" fill="#c9daf8" stroke="#111" stroke-width="6"/><path d="M305 110 l25 -45 l30 35 l30 -35 l25 45z" fill="#ffd34d" stroke="#111" stroke-width="6"/><text x="360" y="130" font-family="Arial, Helvetica, sans-serif" font-size="25" font-weight="900" text-anchor="middle" fill="#111">AO</text><rect x="100" y="170" width="120" height="70" fill="#fff" stroke="#111" stroke-width="5"/><line x1="100" y1="170" x2="220" y2="240" stroke="#b00000" stroke-width="9"/><text x="160" y="210" font-family="Arial, Helvetica, sans-serif" font-size="17" font-weight="900" text-anchor="middle" fill="#111">HUMAN</text>
<rect x="55" y="322" width="610" height="42" rx="10" fill="#111"/><text x="360" y="350" font-family="Arial, Helvetica, sans-serif" font-size="21" font-weight="900" text-anchor="middle" fill="#ffd34d">AO crown → Human authority absent</text>
<text x="360" y="393" font-family="Arial, Helvetica, sans-serif" font-size="13" font-weight="700" text-anchor="middle" fill="#111">Fake-world scenario. No real voucher, person, payment, case, or official workflow.</text></svg>
