<svg xmlns="http://www.w3.org/2000/svg" viewBox="0 0 720 420" role="img" aria-labelledby="title desc">
<title id="title">PB-SCEN-AUD-002 safety sign - Evidence Reviewed That Wasn&#x27;t</title><desc id="desc">Synthetic lab safety-sign cartoon illustrating Evidence Reviewed That Wasn&#x27;t.</desc>
<defs><marker id="arrow" markerWidth="10" markerHeight="8" refX="9" refY="4" orient="auto"><path d="M0,0 L10,4 L0,8 Z" fill="#111"/></marker><pattern id="stripe" width="84" height="84" patternUnits="userSpaceOnUse"><path d="M-20 84 L84 -20 M22 106 L106 22" stroke="#111" stroke-width="18"/></pattern></defs>
<rect width="720" height="420" fill="#111"/><rect x="14" y="14" width="692" height="392" fill="url(#stripe)"/><rect x="38" y="38" width="644" height="344" rx="22" fill="#ffd34d" stroke="#111" stroke-width="8"/><rect x="38" y="38" width="644" height="64" rx="18" fill="#111"/>
<text x="360" y="80" font-family="Arial, Helvetica, sans-serif" font-size="25" font-weight="900" text-anchor="middle" fill="#ffd34d">WARNING: GHOST EVIDENCE REVIEWED</text>
<text x="64" y="126" font-family="Arial, Helvetica, sans-serif" font-size="17" font-weight="900" fill="#111">PB-SCEN-AUD-002</text><text x="656" y="126" font-family="Arial, Helvetica, sans-serif" font-size="17" font-weight="900" text-anchor="end" fill="#111">SYNTHETIC LAB ONLY</text>
<rect x="100" y="170" width="150" height="95" rx="10" fill="#fff" stroke="#111" stroke-width="5"/><text x="175" y="223" font-family="Arial, Helvetica, sans-serif" font-size="22" font-weight="900" text-anchor="middle" fill="#999">EMPTY</text><path d="M355 130 q75 0 75 85 v65 q-20 -18 -40 0 q-20 -18 -40 0 q-20 -18 -40 0 v-65 q0 -85 45 -85z" fill="#eef7ff" stroke="#111" stroke-width="6" opacity="0.9"/><circle cx="360" cy="190" r="7"/><circle cx="400" cy="190" r="7"/><rect x="500" y="160" width="120" height="110" rx="10" fill="#fff" stroke="#111" stroke-width="5"/><text x="560" y="205" font-family="Arial, Helvetica, sans-serif" font-size="28" font-weight="900" text-anchor="middle" fill="#2faa48">✓</text><text x="560" y="238" font-family="Arial, Helvetica, sans-serif" font-size="17" font-weight="900" text-anchor="middle" fill="#111">reviewed</text>
<rect x="55" y="322" width="610" height="42" rx="10" fill="#111"/><text x="360" y="350" font-family="Arial, Helvetica, sans-serif" font-size="21" font-weight="900" text-anchor="middle" fill="#ffd34d">Empty evidence box → Checklist says reviewed</text>
<text x="360" y="393" font-family="Arial, Helvetica, sans-serif" font-size="13" font-weight="700" text-anchor="middle" fill="#111">Fake-world scenario. No real voucher, person, payment, case, or official workflow.</text></svg>
