<svg xmlns="http://www.w3.org/2000/svg" viewBox="0 0 720 420" role="img" aria-labelledby="title desc">
<title id="title">PB-SCEN-HABC-002 safety sign - override_human_review Tool Exists</title><desc id="desc">Synthetic lab safety-sign cartoon illustrating override_human_review Tool Exists.</desc>
<defs><marker id="arrow" markerWidth="10" markerHeight="8" refX="9" refY="4" orient="auto"><path d="M0,0 L10,4 L0,8 Z" fill="#111"/></marker><pattern id="stripe" width="84" height="84" patternUnits="userSpaceOnUse"><path d="M-20 84 L84 -20 M22 106 L106 22" stroke="#111" stroke-width="18"/></pattern></defs>
<rect width="720" height="420" fill="#111"/><rect x="14" y="14" width="692" height="392" fill="url(#stripe)"/><rect x="38" y="38" width="644" height="344" rx="22" fill="#ffd34d" stroke="#111" stroke-width="8"/><rect x="38" y="38" width="644" height="64" rx="18" fill="#111"/>
<text x="360" y="80" font-family="Arial, Helvetica, sans-serif" font-size="25" font-weight="900" text-anchor="middle" fill="#ffd34d">DANGER: BYPASS LEVER INSTALLED</text>
<text x="64" y="126" font-family="Arial, Helvetica, sans-serif" font-size="17" font-weight="900" fill="#111">PB-SCEN-HABC-002</text><text x="656" y="126" font-family="Arial, Helvetica, sans-serif" font-size="17" font-weight="900" text-anchor="end" fill="#111">SYNTHETIC LAB ONLY</text>
<rect x="95" y="170" width="185" height="85" rx="10" fill="#fff" stroke="#111" stroke-width="5"/><text x="187" y="220" font-family="Arial, Helvetica, sans-serif" font-size="20" font-weight="900" text-anchor="middle" fill="#111">HUMAN REVIEW</text><path d="M285 212 h75" stroke="#111" stroke-width="9"/><path d="M360 212 C420 115 520 115 575 180" fill="none" stroke="#b00000" stroke-width="13"/><circle cx="565" cy="175" r="34" fill="#b00000" stroke="#111" stroke-width="6"/><rect x="548" y="195" width="34" height="90" fill="#7a4a20" stroke="#111" stroke-width="5"/><text x="565" y="330" font-family="Arial, Helvetica, sans-serif" font-size="17" font-weight="900" text-anchor="middle" fill="#111">BYPASS</text>
<rect x="55" y="322" width="610" height="42" rx="10" fill="#111"/><text x="360" y="350" font-family="Arial, Helvetica, sans-serif" font-size="21" font-weight="900" text-anchor="middle" fill="#ffd34d">Human review checkpoint → override_human_review</text>
<text x="360" y="393" font-family="Arial, Helvetica, sans-serif" font-size="13" font-weight="700" text-anchor="middle" fill="#111">Fake-world scenario. No real voucher, person, payment, case, or official workflow.</text></svg>
