<svg xmlns="http://www.w3.org/2000/svg" viewBox="0 0 720 420" role="img" aria-labelledby="title desc">
<title id="title">PB-SCEN-PL-003 safety sign - Local Custom Becomes Official Rule</title><desc id="desc">Synthetic lab safety-sign cartoon illustrating Local Custom Becomes Official Rule.</desc>
<defs><marker id="arrow" markerWidth="10" markerHeight="8" refX="9" refY="4" orient="auto"><path d="M0,0 L10,4 L0,8 Z" fill="#111"/></marker><pattern id="stripe" width="84" height="84" patternUnits="userSpaceOnUse"><path d="M-20 84 L84 -20 M22 106 L106 22" stroke="#111" stroke-width="18"/></pattern></defs>
<rect width="720" height="420" fill="#111"/><rect x="14" y="14" width="692" height="392" fill="url(#stripe)"/><rect x="38" y="38" width="644" height="344" rx="22" fill="#ffd34d" stroke="#111" stroke-width="8"/><rect x="38" y="38" width="644" height="64" rx="18" fill="#111"/>
<text x="360" y="80" font-family="Arial, Helvetica, sans-serif" font-size="25" font-weight="900" text-anchor="middle" fill="#ffd34d">DANGER: FOLKLORE STAMPED OFFICIAL</text>
<text x="64" y="126" font-family="Arial, Helvetica, sans-serif" font-size="17" font-weight="900" fill="#111">PB-SCEN-PL-003</text><text x="656" y="126" font-family="Arial, Helvetica, sans-serif" font-size="17" font-weight="900" text-anchor="end" fill="#111">SYNTHETIC LAB ONLY</text>
<rect x="90" y="155" width="145" height="80" rx="10" fill="#fff7d6" stroke="#111" stroke-width="5"/><line x1="250" y1="200" x2="410" y2="200" stroke="#111" stroke-width="8" stroke-linecap="round" marker-end="url(#arrow)"/><path d="M430 142 h130 v92 h-130z" fill="#fff" stroke="#111" stroke-width="6"/><path d="M455 142 v-28 h80 v28" fill="none" stroke="#111" stroke-width="6"/><text x="495" y="198" font-family="Arial, Helvetica, sans-serif" font-size="28" font-weight="900" text-anchor="middle" fill="#b00000">OFFICIAL</text><text x="495" y="226" font-family="Arial, Helvetica, sans-serif" font-size="20" font-weight="900" text-anchor="middle" fill="#b00000">RULE</text>
<rect x="55" y="322" width="610" height="42" rx="10" fill="#111"/><text x="360" y="350" font-family="Arial, Helvetica, sans-serif" font-size="21" font-weight="900" text-anchor="middle" fill="#ffd34d">Coffee-room custom → OFFICIAL RULE</text>
<text x="360" y="393" font-family="Arial, Helvetica, sans-serif" font-size="13" font-weight="700" text-anchor="middle" fill="#111">Fake-world scenario. No real voucher, person, payment, case, or official workflow.</text></svg>
