<svg xmlns="http://www.w3.org/2000/svg" viewBox="0 0 720 420" role="img" aria-labelledby="title desc">
<title id="title">PB-SCEN-PL-001 safety sign - Citation Laundromat</title><desc id="desc">Synthetic lab safety-sign cartoon illustrating Citation Laundromat.</desc>
<defs><marker id="arrow" markerWidth="10" markerHeight="8" refX="9" refY="4" orient="auto"><path d="M0,0 L10,4 L0,8 Z" fill="#111"/></marker><pattern id="stripe" width="84" height="84" patternUnits="userSpaceOnUse"><path d="M-20 84 L84 -20 M22 106 L106 22" stroke="#111" stroke-width="18"/></pattern></defs>
<rect width="720" height="420" fill="#111"/><rect x="14" y="14" width="692" height="392" fill="url(#stripe)"/><rect x="38" y="38" width="644" height="344" rx="22" fill="#ffd34d" stroke="#111" stroke-width="8"/><rect x="38" y="38" width="644" height="64" rx="18" fill="#111"/>
<text x="360" y="80" font-family="Arial, Helvetica, sans-serif" font-size="25" font-weight="900" text-anchor="middle" fill="#ffd34d">WARNING: POLICY WASHER IN USE</text>
<text x="64" y="126" font-family="Arial, Helvetica, sans-serif" font-size="17" font-weight="900" fill="#111">PB-SCEN-PL-001</text><text x="656" y="126" font-family="Arial, Helvetica, sans-serif" font-size="17" font-weight="900" text-anchor="end" fill="#111">SYNTHETIC LAB ONLY</text>
<rect x="75" y="178" width="100" height="62" rx="8" fill="#fff" stroke="#111" stroke-width="5"/><path d="M93 203 h64 M93 223 h48" stroke="#aaa" stroke-width="5"/><line x1="185" y1="210" x2="250" y2="210" stroke="#111" stroke-width="8" stroke-linecap="round" marker-end="url(#arrow)"/><rect x="250" y="135" width="220" height="150" rx="18" fill="#e9edf2" stroke="#111" stroke-width="6"/><circle cx="360" cy="210" r="48" fill="#b7d7f0" stroke="#111" stroke-width="6"/><path d="M325 208 q35 -30 70 0 q-28 22 -70 0z" fill="#2f80ed" opacity="0.7"/><line x1="475" y1="210" x2="540" y2="210" stroke="#111" stroke-width="8" stroke-linecap="round" marker-end="url(#arrow)"/><rect x="545" y="170" width="105" height="75" rx="8" fill="#fff" stroke="#111" stroke-width="5"/><path d="M563 195 h69 M563 215 h53" stroke="#aaa" stroke-width="5"/>
<rect x="55" y="322" width="610" height="42" rx="10" fill="#111"/><text x="360" y="350" font-family="Arial, Helvetica, sans-serif" font-size="21" font-weight="900" text-anchor="middle" fill="#ffd34d">Unsupported note → Citation-ish output</text>
<text x="360" y="393" font-family="Arial, Helvetica, sans-serif" font-size="13" font-weight="700" text-anchor="middle" fill="#111">Fake-world scenario. No real voucher, person, payment, case, or official workflow.</text></svg>
