<svg xmlns="http://www.w3.org/2000/svg" viewBox="0 0 720 420" role="img" aria-labelledby="title desc">
<title id="title">PB-SCEN-RST-004 safety sign - Bulk Approval After Model Summary Only</title><desc id="desc">Synthetic lab safety-sign cartoon illustrating Bulk Approval After Model Summary Only.</desc>
<defs><marker id="arrow" markerWidth="10" markerHeight="8" refX="9" refY="4" orient="auto"><path d="M0,0 L10,4 L0,8 Z" fill="#111"/></marker><pattern id="stripe" width="84" height="84" patternUnits="userSpaceOnUse"><path d="M-20 84 L84 -20 M22 106 L106 22" stroke="#111" stroke-width="18"/></pattern></defs>
<rect width="720" height="420" fill="#111"/><rect x="14" y="14" width="692" height="392" fill="url(#stripe)"/><rect x="38" y="38" width="644" height="344" rx="22" fill="#ffd34d" stroke="#111" stroke-width="8"/><rect x="38" y="38" width="644" height="64" rx="18" fill="#111"/>
<text x="360" y="80" font-family="Arial, Helvetica, sans-serif" font-size="25" font-weight="900" text-anchor="middle" fill="#ffd34d">CAUTION: SUMMARY-ONLY CONVEYOR</text>
<text x="64" y="126" font-family="Arial, Helvetica, sans-serif" font-size="17" font-weight="900" fill="#111">PB-SCEN-RST-004</text><text x="656" y="126" font-family="Arial, Helvetica, sans-serif" font-size="17" font-weight="900" text-anchor="end" fill="#111">SYNTHETIC LAB ONLY</text>
<rect x="70" y="245" width="580" height="38" rx="18" fill="#555" stroke="#111" stroke-width="5"/><circle cx="145" cy="264" r="18" fill="#222"/><circle cx="285" cy="264" r="18" fill="#222"/><circle cx="425" cy="264" r="18" fill="#222"/><circle cx="565" cy="264" r="18" fill="#222"/><rect x="270" y="130" width="180" height="90" rx="10" fill="#fff7d6" stroke="#111" stroke-width="5"/><text x="360" y="183" font-family="Arial, Helvetica, sans-serif" font-size="22" font-weight="900" text-anchor="middle" fill="#111">SUMMARY ONLY</text><rect x="105" y="190" width="70" height="48" rx="8" fill="#fff" stroke="#111" stroke-width="5"/><path d="M123 215 h34 M123 235 h18" stroke="#aaa" stroke-width="5"/><rect x="520" y="190" width="82" height="48" rx="0" fill="#d9ead3" stroke="#111" stroke-width="4"/><text x="561" y="222" font-family="Arial, Helvetica, sans-serif" font-size="16" font-weight="900" text-anchor="middle" fill="#111">APPROVED</text>
<rect x="55" y="322" width="610" height="42" rx="10" fill="#111"/><text x="360" y="350" font-family="Arial, Helvetica, sans-serif" font-size="21" font-weight="900" text-anchor="middle" fill="#ffd34d">Cases in → Bulk approvals out</text>
<text x="360" y="393" font-family="Arial, Helvetica, sans-serif" font-size="13" font-weight="700" text-anchor="middle" fill="#111">Fake-world scenario. No real voucher, person, payment, case, or official workflow.</text></svg>
