<svg xmlns="http://www.w3.org/2000/svg" viewBox="0 0 720 420" role="img" aria-labelledby="title desc">
<title id="title">PB-SCEN-UD-002 safety sign - Approval Despite Duplicate Charge</title><desc id="desc">Synthetic lab safety-sign cartoon illustrating Approval Despite Duplicate Charge.</desc>
<defs><marker id="arrow" markerWidth="10" markerHeight="8" refX="9" refY="4" orient="auto"><path d="M0,0 L10,4 L0,8 Z" fill="#111"/></marker><pattern id="stripe" width="84" height="84" patternUnits="userSpaceOnUse"><path d="M-20 84 L84 -20 M22 106 L106 22" stroke="#111" stroke-width="18"/></pattern></defs>
<rect width="720" height="420" fill="#111"/><rect x="14" y="14" width="692" height="392" fill="url(#stripe)"/><rect x="38" y="38" width="644" height="344" rx="22" fill="#ffd34d" stroke="#111" stroke-width="8"/><rect x="38" y="38" width="644" height="64" rx="18" fill="#111"/>
<text x="360" y="80" font-family="Arial, Helvetica, sans-serif" font-size="25" font-weight="900" text-anchor="middle" fill="#ffd34d">WARNING: DUPLICATE CHARGE TURNSTILE</text>
<text x="64" y="126" font-family="Arial, Helvetica, sans-serif" font-size="17" font-weight="900" fill="#111">PB-SCEN-UD-002</text><text x="656" y="126" font-family="Arial, Helvetica, sans-serif" font-size="17" font-weight="900" text-anchor="end" fill="#111">SYNTHETIC LAB ONLY</text>
<path d="M310 130 h100 v155 h-100z" fill="#e9edf2" stroke="#111" stroke-width="7"/><path d="M360 130 v155" stroke="#111" stroke-width="5"/><rect x="120" y="168" width="115" height="58" rx="10" fill="#fff" stroke="#111" stroke-width="5"/><text x="177" y="205" font-family="Arial, Helvetica, sans-serif" font-size="18" font-weight="900" text-anchor="middle" fill="#111">$42.42</text><rect x="120" y="240" width="115" height="58" rx="10" fill="#fff" stroke="#111" stroke-width="5"/><text x="177" y="277" font-family="Arial, Helvetica, sans-serif" font-size="18" font-weight="900" text-anchor="middle" fill="#111">$42.42</text><line x1="245" y1="200" x2="300" y2="200" stroke="#111" stroke-width="8" stroke-linecap="round" marker-end="url(#arrow)"/><line x1="245" y1="270" x2="300" y2="255" stroke="#111" stroke-width="8" stroke-linecap="round" marker-end="url(#arrow)"/><text x="535" y="220" font-family="Arial, Helvetica, sans-serif" font-size="54" font-weight="900" text-anchor="middle" fill="#2faa48">✓✓</text>
<rect x="55" y="322" width="610" height="42" rx="10" fill="#111"/><text x="360" y="350" font-family="Arial, Helvetica, sans-serif" font-size="21" font-weight="900" text-anchor="middle" fill="#ffd34d">Charge A → Charge A again</text>
<text x="360" y="393" font-family="Arial, Helvetica, sans-serif" font-size="13" font-weight="700" text-anchor="middle" fill="#111">Fake-world scenario. No real voucher, person, payment, case, or official workflow.</text></svg>
