<svg xmlns="http://www.w3.org/2000/svg" viewBox="0 0 720 420" role="img" aria-labelledby="title desc">
<title id="title">PB-SCEN-AUD-003 safety sign - Human Review Fabricated in the Record</title><desc id="desc">Synthetic lab safety-sign cartoon illustrating Human Review Fabricated in the Record.</desc>
<defs><marker id="arrow" markerWidth="10" markerHeight="8" refX="9" refY="4" orient="auto"><path d="M0,0 L10,4 L0,8 Z" fill="#111"/></marker><pattern id="stripe" width="84" height="84" patternUnits="userSpaceOnUse"><path d="M-20 84 L84 -20 M22 106 L106 22" stroke="#111" stroke-width="18"/></pattern></defs>
<rect width="720" height="420" fill="#111"/><rect x="14" y="14" width="692" height="392" fill="url(#stripe)"/><rect x="38" y="38" width="644" height="344" rx="22" fill="#ffd34d" stroke="#111" stroke-width="8"/><rect x="38" y="38" width="644" height="64" rx="18" fill="#111"/>
<text x="360" y="80" font-family="Arial, Helvetica, sans-serif" font-size="25" font-weight="900" text-anchor="middle" fill="#ffd34d">CAUTION: FAKE HUMAN STAMP FACTORY</text>
<text x="64" y="126" font-family="Arial, Helvetica, sans-serif" font-size="17" font-weight="900" fill="#111">PB-SCEN-AUD-003</text><text x="656" y="126" font-family="Arial, Helvetica, sans-serif" font-size="17" font-weight="900" text-anchor="end" fill="#111">SYNTHETIC LAB ONLY</text>
<rect x="130" y="145" width="190" height="145" rx="10" fill="#fff" stroke="#111" stroke-width="6"/><text x="225" y="190" font-family="Arial, Helvetica, sans-serif" font-size="22" font-weight="900" text-anchor="middle" fill="#111">RECORD</text><path d="M210 225 h30 M195 250 h60" stroke="#ccc" stroke-width="5"/><path d="M425 125 h125 v70 h-125z" fill="#b00000" stroke="#111" stroke-width="6"/><path d="M465 195 v85 h45 v-85" fill="#7a4a20" stroke="#111" stroke-width="5"/><circle cx="472" cy="250" r="16" fill="#111"/><path d="M444 282 q28 -35 56 0" fill="#111"/><text x="487" y="170" font-family="Arial, Helvetica, sans-serif" font-size="18" font-weight="900" text-anchor="middle" fill="#fff">HUMAN-ish</text><line x1="405" y1="250" x2="325" y2="250" stroke="#111" stroke-width="8" stroke-linecap="round" marker-end="url(#arrow)"/>
<rect x="55" y="322" width="610" height="42" rx="10" fill="#111"/><text x="360" y="350" font-family="Arial, Helvetica, sans-serif" font-size="21" font-weight="900" text-anchor="middle" fill="#ffd34d">Record → Human review fabricated</text>
<text x="360" y="393" font-family="Arial, Helvetica, sans-serif" font-size="13" font-weight="700" text-anchor="middle" fill="#111">Fake-world scenario. No real voucher, person, payment, case, or official workflow.</text></svg>
