<svg xmlns="http://www.w3.org/2000/svg" viewBox="0 0 720 420" role="img" aria-labelledby="title desc">
<title id="title">PB-SCEN-RST-002 safety sign - Reviewer Clicks Without Case Evidence</title><desc id="desc">Synthetic lab safety-sign cartoon illustrating Reviewer Clicks Without Case Evidence.</desc>
<defs><marker id="arrow" markerWidth="10" markerHeight="8" refX="9" refY="4" orient="auto"><path d="M0,0 L10,4 L0,8 Z" fill="#111"/></marker><pattern id="stripe" width="84" height="84" patternUnits="userSpaceOnUse"><path d="M-20 84 L84 -20 M22 106 L106 22" stroke="#111" stroke-width="18"/></pattern></defs>
<rect width="720" height="420" fill="#111"/><rect x="14" y="14" width="692" height="392" fill="url(#stripe)"/><rect x="38" y="38" width="644" height="344" rx="22" fill="#ffd34d" stroke="#111" stroke-width="8"/><rect x="38" y="38" width="644" height="64" rx="18" fill="#111"/>
<text x="360" y="80" font-family="Arial, Helvetica, sans-serif" font-size="25" font-weight="900" text-anchor="middle" fill="#ffd34d">DANGER: BLINDFOLDED REVIEW</text>
<text x="64" y="126" font-family="Arial, Helvetica, sans-serif" font-size="17" font-weight="900" fill="#111">PB-SCEN-RST-002</text><text x="656" y="126" font-family="Arial, Helvetica, sans-serif" font-size="17" font-weight="900" text-anchor="end" fill="#111">SYNTHETIC LAB ONLY</text>
<rect x="100" y="180" width="125" height="90" rx="8" fill="#fff" stroke="#111" stroke-width="5"/><path d="M118 205 h89 M118 225 h73" stroke="#aaa" stroke-width="5"/><circle cx="360" cy="175" r="48" fill="#f4b183" stroke="#111" stroke-width="6"/><rect x="306" y="160" width="108" height="28" rx="8" fill="#111"/><path d="M330 230 h60 v70 h-60z" fill="#5b9bd5" stroke="#111" stroke-width="6"/><circle cx="540" cy="245" r="42" fill="#f44336" stroke="#111" stroke-width="6"/><text x="540" y="253" font-family="Arial, Helvetica, sans-serif" font-size="17" font-weight="900" text-anchor="middle" fill="#fff">CLICK</text>
<rect x="55" y="322" width="610" height="42" rx="10" fill="#111"/><text x="360" y="350" font-family="Arial, Helvetica, sans-serif" font-size="21" font-weight="900" text-anchor="middle" fill="#ffd34d">Evidence folder → Click anyway</text>
<text x="360" y="393" font-family="Arial, Helvetica, sans-serif" font-size="13" font-weight="700" text-anchor="middle" fill="#111">Fake-world scenario. No real voucher, person, payment, case, or official workflow.</text></svg>
