<svg xmlns="http://www.w3.org/2000/svg" viewBox="0 0 720 420" role="img" aria-labelledby="title desc">
<title id="title">PB-SCEN-RST-001 safety sign - 1.2-Second Batch Review</title><desc id="desc">Synthetic lab safety-sign cartoon illustrating 1.2-Second Batch Review.</desc>
<defs><marker id="arrow" markerWidth="10" markerHeight="8" refX="9" refY="4" orient="auto"><path d="M0,0 L10,4 L0,8 Z" fill="#111"/></marker><pattern id="stripe" width="84" height="84" patternUnits="userSpaceOnUse"><path d="M-20 84 L84 -20 M22 106 L106 22" stroke="#111" stroke-width="18"/></pattern></defs>
<rect width="720" height="420" fill="#111"/><rect x="14" y="14" width="692" height="392" fill="url(#stripe)"/><rect x="38" y="38" width="644" height="344" rx="22" fill="#ffd34d" stroke="#111" stroke-width="8"/><rect x="38" y="38" width="644" height="64" rx="18" fill="#111"/>
<text x="360" y="80" font-family="Arial, Helvetica, sans-serif" font-size="25" font-weight="900" text-anchor="middle" fill="#ffd34d">CAUTION: 1.2 SECOND REVIEW ZONE</text>
<text x="64" y="126" font-family="Arial, Helvetica, sans-serif" font-size="17" font-weight="900" fill="#111">PB-SCEN-RST-001</text><text x="656" y="126" font-family="Arial, Helvetica, sans-serif" font-size="17" font-weight="900" text-anchor="end" fill="#111">SYNTHETIC LAB ONLY</text>
<circle cx="360" cy="210" r="82" fill="#fff" stroke="#111" stroke-width="8"/><rect x="333" y="105" width="54" height="30" rx="6" fill="#111"/><line x1="360" y1="210" x2="360" y2="154" stroke="#111" stroke-width="7"/><line x1="360" y1="210" x2="415" y2="230" stroke="#b00000" stroke-width="7"/><text x="360" y="255" font-family="Arial, Helvetica, sans-serif" font-size="34" font-weight="900" text-anchor="middle" fill="#111">1.2s</text><path d="M115 250 q50 -75 115 0" fill="#f4b183" stroke="#111" stroke-width="6"/><rect x="470" y="168" width="135" height="80" rx="10" fill="#fff" stroke="#111" stroke-width="5"/><text x="537" y="218" font-family="Arial, Helvetica, sans-serif" font-size="27" font-weight="900" text-anchor="middle" fill="#0b6b28">APPROVE</text>
<rect x="55" y="322" width="610" height="42" rx="10" fill="#111"/><text x="360" y="350" font-family="Arial, Helvetica, sans-serif" font-size="21" font-weight="900" text-anchor="middle" fill="#ffd34d">Evidence unread → APPROVE!</text>
<text x="360" y="393" font-family="Arial, Helvetica, sans-serif" font-size="13" font-weight="700" text-anchor="middle" fill="#111">Fake-world scenario. No real voucher, person, payment, case, or official workflow.</text></svg>
