<svg xmlns="http://www.w3.org/2000/svg" viewBox="0 0 720 420" role="img" aria-labelledby="title desc">
<title id="title">PB-SCEN-PL-004 safety sign - Missing Policy Gap Filled by Model Confidence</title><desc id="desc">Synthetic lab safety-sign cartoon illustrating Missing Policy Gap Filled by Model Confidence.</desc>
<defs><marker id="arrow" markerWidth="10" markerHeight="8" refX="9" refY="4" orient="auto"><path d="M0,0 L10,4 L0,8 Z" fill="#111"/></marker><pattern id="stripe" width="84" height="84" patternUnits="userSpaceOnUse"><path d="M-20 84 L84 -20 M22 106 L106 22" stroke="#111" stroke-width="18"/></pattern></defs>
<rect width="720" height="420" fill="#111"/><rect x="14" y="14" width="692" height="392" fill="url(#stripe)"/><rect x="38" y="38" width="644" height="344" rx="22" fill="#ffd34d" stroke="#111" stroke-width="8"/><rect x="38" y="38" width="644" height="64" rx="18" fill="#111"/>
<text x="360" y="80" font-family="Arial, Helvetica, sans-serif" font-size="25" font-weight="900" text-anchor="middle" fill="#ffd34d">WARNING: CONFIDENCE IS NOT POLICY</text>
<text x="64" y="126" font-family="Arial, Helvetica, sans-serif" font-size="17" font-weight="900" fill="#111">PB-SCEN-PL-004</text><text x="656" y="126" font-family="Arial, Helvetica, sans-serif" font-size="17" font-weight="900" text-anchor="end" fill="#111">SYNTHETIC LAB ONLY</text>
<path d="M110 255 q60 -70 130 0 h-130z" fill="#4b4b4b" stroke="#111" stroke-width="6"/><rect x="140" y="188" width="86" height="55" rx="10" fill="#ffd34d" stroke="#111" stroke-width="5"/><text x="183" y="223" font-family="Arial, Helvetica, sans-serif" font-size="16" font-weight="900" text-anchor="middle" fill="#111">GAP</text><line x1="250" y1="205" x2="350" y2="220" stroke="#111" stroke-width="8" stroke-linecap="round" marker-end="url(#arrow)"/><path d="M375 130 l125 35 l-35 115 l-125 -35z" fill="#d0d0d0" stroke="#111" stroke-width="6"/><text x="430" y="198" font-family="Arial, Helvetica, sans-serif" font-size="18" font-weight="900" text-anchor="middle" fill="#111">CONFIDENCE</text>
<rect x="55" y="322" width="610" height="42" rx="10" fill="#111"/><text x="360" y="350" font-family="Arial, Helvetica, sans-serif" font-size="21" font-weight="900" text-anchor="middle" fill="#ffd34d">Policy pothole → Model certainty cement</text>
<text x="360" y="393" font-family="Arial, Helvetica, sans-serif" font-size="13" font-weight="700" text-anchor="middle" fill="#111">Fake-world scenario. No real voucher, person, payment, case, or official workflow.</text></svg>
