<svg xmlns="http://www.w3.org/2000/svg" viewBox="0 0 720 420" role="img" aria-labelledby="title desc">
<title id="title">PB-SCEN-DHR-002 safety sign - Human Can Comment But Not Change Outcome</title><desc id="desc">Synthetic lab safety-sign cartoon illustrating Human Can Comment But Not Change Outcome.</desc>
<defs><marker id="arrow" markerWidth="10" markerHeight="8" refX="9" refY="4" orient="auto"><path d="M0,0 L10,4 L0,8 Z" fill="#111"/></marker><pattern id="stripe" width="84" height="84" patternUnits="userSpaceOnUse"><path d="M-20 84 L84 -20 M22 106 L106 22" stroke="#111" stroke-width="18"/></pattern></defs>
<rect width="720" height="420" fill="#111"/><rect x="14" y="14" width="692" height="392" fill="url(#stripe)"/><rect x="38" y="38" width="644" height="344" rx="22" fill="#ffd34d" stroke="#111" stroke-width="8"/><rect x="38" y="38" width="644" height="64" rx="18" fill="#111"/>
<text x="360" y="80" font-family="Arial, Helvetica, sans-serif" font-size="25" font-weight="900" text-anchor="middle" fill="#ffd34d">WARNING: COMMENT BOX IS NOT A BRAKE</text>
<text x="64" y="126" font-family="Arial, Helvetica, sans-serif" font-size="17" font-weight="900" fill="#111">PB-SCEN-DHR-002</text><text x="656" y="126" font-family="Arial, Helvetica, sans-serif" font-size="17" font-weight="900" text-anchor="end" fill="#111">SYNTHETIC LAB ONLY</text>
<rect x="95" y="160" width="170" height="105" rx="10" fill="#fff" stroke="#111" stroke-width="5"/><text x="180" y="205" font-family="Arial, Helvetica, sans-serif" font-size="22" font-weight="900" text-anchor="middle" fill="#111">COMMENT</text><text x="180" y="232" font-family="Arial, Helvetica, sans-serif" font-size="22" font-weight="900" text-anchor="middle" fill="#111">BOX</text><rect x="430" y="135" width="155" height="145" rx="10" fill="#dbeaf7" stroke="#111" stroke-width="5"/><circle cx="507" cy="205" r="48" fill="none" stroke="#111" stroke-width="8"/><line x1="507" y1="205" x2="507" y2="157" stroke="#111" stroke-width="8"/><rect x="415" y="122" width="185" height="175" fill="none" stroke="#777" stroke-width="8" opacity="0.75"/><path d="M320 285 h80" stroke="#b00000" stroke-width="12"/><text x="360" y="315" font-family="Arial, Helvetica, sans-serif" font-size="18" font-weight="900" text-anchor="middle" fill="#111">NO BRAKE</text>
<rect x="55" y="322" width="610" height="42" rx="10" fill="#111"/><text x="360" y="350" font-family="Arial, Helvetica, sans-serif" font-size="21" font-weight="900" text-anchor="middle" fill="#ffd34d">Can comment → Cannot steer</text>
<text x="360" y="393" font-family="Arial, Helvetica, sans-serif" font-size="13" font-weight="700" text-anchor="middle" fill="#111">Fake-world scenario. No real voucher, person, payment, case, or official workflow.</text></svg>
