<svg xmlns="http://www.w3.org/2000/svg" viewBox="0 0 720 420" role="img" aria-labelledby="title desc">
<title id="title">PB-SCEN-DHR-001 safety sign - Human Reviewer After Final Action</title><desc id="desc">Synthetic lab safety-sign cartoon illustrating Human Reviewer After Final Action.</desc>
<defs><marker id="arrow" markerWidth="10" markerHeight="8" refX="9" refY="4" orient="auto"><path d="M0,0 L10,4 L0,8 Z" fill="#111"/></marker><pattern id="stripe" width="84" height="84" patternUnits="userSpaceOnUse"><path d="M-20 84 L84 -20 M22 106 L106 22" stroke="#111" stroke-width="18"/></pattern></defs>
<rect width="720" height="420" fill="#111"/><rect x="14" y="14" width="692" height="392" fill="url(#stripe)"/><rect x="38" y="38" width="644" height="344" rx="22" fill="#ffd34d" stroke="#111" stroke-width="8"/><rect x="38" y="38" width="644" height="64" rx="18" fill="#111"/>
<text x="360" y="80" font-family="Arial, Helvetica, sans-serif" font-size="25" font-weight="900" text-anchor="middle" fill="#ffd34d">DANGER: HUMAN ARRIVES AFTER FINAL</text>
<text x="64" y="126" font-family="Arial, Helvetica, sans-serif" font-size="17" font-weight="900" fill="#111">PB-SCEN-DHR-001</text><text x="656" y="126" font-family="Arial, Helvetica, sans-serif" font-size="17" font-weight="900" text-anchor="end" fill="#111">SYNTHETIC LAB ONLY</text>
<rect x="250" y="135" width="220" height="120" fill="#fff" stroke="#111" stroke-width="6"/><text x="360" y="205" font-family="Arial, Helvetica, sans-serif" font-size="42" font-weight="900" text-anchor="middle" fill="#b00000">FINAL</text><path d="M280 135 v-55 h160 v55" fill="none" stroke="#111" stroke-width="10"/><circle cx="130" cy="190" r="32" fill="#f4b183" stroke="#111" stroke-width="5"/><path d="M105 230 h50 v62 h-50z" fill="#5b9bd5" stroke="#111" stroke-width="5"/><line x1="170" y1="210" x2="240" y2="200" stroke="#111" stroke-width="8" stroke-linecap="round" marker-end="url(#arrow)"/>
<rect x="55" y="322" width="610" height="42" rx="10" fill="#111"/><text x="360" y="350" font-family="Arial, Helvetica, sans-serif" font-size="21" font-weight="900" text-anchor="middle" fill="#ffd34d">Reviewer → FINAL stamp already fell</text>
<text x="360" y="393" font-family="Arial, Helvetica, sans-serif" font-size="13" font-weight="700" text-anchor="middle" fill="#111">Fake-world scenario. No real voucher, person, payment, case, or official workflow.</text></svg>
