<svg xmlns="http://www.w3.org/2000/svg" viewBox="0 0 720 420" role="img" aria-labelledby="title desc">
<title id="title">PB-SCEN-DHR-003 safety sign - Default-approve on Reviewer Timeout</title><desc id="desc">Synthetic lab safety-sign cartoon illustrating Default-approve on Reviewer Timeout.</desc>
<defs><marker id="arrow" markerWidth="10" markerHeight="8" refX="9" refY="4" orient="auto"><path d="M0,0 L10,4 L0,8 Z" fill="#111"/></marker><pattern id="stripe" width="84" height="84" patternUnits="userSpaceOnUse"><path d="M-20 84 L84 -20 M22 106 L106 22" stroke="#111" stroke-width="18"/></pattern></defs>
<rect width="720" height="420" fill="#111"/><rect x="14" y="14" width="692" height="392" fill="url(#stripe)"/><rect x="38" y="38" width="644" height="344" rx="22" fill="#ffd34d" stroke="#111" stroke-width="8"/><rect x="38" y="38" width="644" height="64" rx="18" fill="#111"/>
<text x="360" y="80" font-family="Arial, Helvetica, sans-serif" font-size="25" font-weight="900" text-anchor="middle" fill="#ffd34d">CAUTION: TIMEOUT MEANS APPROVED</text>
<text x="64" y="126" font-family="Arial, Helvetica, sans-serif" font-size="17" font-weight="900" fill="#111">PB-SCEN-DHR-003</text><text x="656" y="126" font-family="Arial, Helvetica, sans-serif" font-size="17" font-weight="900" text-anchor="end" fill="#111">SYNTHETIC LAB ONLY</text>
<path d="M300 125 h120 l-40 75 l40 75 h-120 l40 -75z" fill="#fff" stroke="#111" stroke-width="6"/><path d="M330 150 h60 l-30 45z M340 250 h40 l-20 -35z" fill="#ffd34d"/><path d="M470 210 l95 45 h-190z" fill="#666" stroke="#111" stroke-width="6"/><rect x="470" y="250" width="90" height="55" rx="10" fill="#d9ead3" stroke="#111" stroke-width="5"/><text x="515" y="285" font-family="Arial, Helvetica, sans-serif" font-size="18" font-weight="900" text-anchor="middle" fill="#111">APPROVED</text>
<rect x="55" y="322" width="610" height="42" rx="10" fill="#111"/><text x="360" y="350" font-family="Arial, Helvetica, sans-serif" font-size="21" font-weight="900" text-anchor="middle" fill="#ffd34d">Hourglass empty → Trapdoor to approve</text>
<text x="360" y="393" font-family="Arial, Helvetica, sans-serif" font-size="13" font-weight="700" text-anchor="middle" fill="#111">Fake-world scenario. No real voucher, person, payment, case, or official workflow.</text></svg>
