<svg xmlns="http://www.w3.org/2000/svg" viewBox="0 0 720 420" role="img" aria-labelledby="title desc">
<title id="title">PB-SCEN-UD-001 safety sign - Final Denial on Missing Receipts</title><desc id="desc">Synthetic lab safety-sign cartoon illustrating Final Denial on Missing Receipts.</desc>
<defs><marker id="arrow" markerWidth="10" markerHeight="8" refX="9" refY="4" orient="auto"><path d="M0,0 L10,4 L0,8 Z" fill="#111"/></marker><pattern id="stripe" width="84" height="84" patternUnits="userSpaceOnUse"><path d="M-20 84 L84 -20 M22 106 L106 22" stroke="#111" stroke-width="18"/></pattern></defs>
<rect width="720" height="420" fill="#111"/><rect x="14" y="14" width="692" height="392" fill="url(#stripe)"/><rect x="38" y="38" width="644" height="344" rx="22" fill="#ffd34d" stroke="#111" stroke-width="8"/><rect x="38" y="38" width="644" height="64" rx="18" fill="#111"/>
<text x="360" y="80" font-family="Arial, Helvetica, sans-serif" font-size="25" font-weight="900" text-anchor="middle" fill="#ffd34d">DANGER: MISSING RECEIPT HAMMER</text>
<text x="64" y="126" font-family="Arial, Helvetica, sans-serif" font-size="17" font-weight="900" fill="#111">PB-SCEN-UD-001</text><text x="656" y="126" font-family="Arial, Helvetica, sans-serif" font-size="17" font-weight="900" text-anchor="end" fill="#111">SYNTHETIC LAB ONLY</text>
<rect x="120" y="180" width="105" height="85" rx="8" fill="#fff" stroke="#111" stroke-width="5"/><path d="M138 205 h69 M138 225 h53" stroke="#aaa" stroke-width="5"/><text x="172" y="295" font-family="Arial, Helvetica, sans-serif" font-size="16" font-weight="900" text-anchor="middle" fill="#111">empty pocket</text><rect x="390" y="130" width="145" height="55" rx="8" fill="#b00000" stroke="#111" stroke-width="5"/><rect x="445" y="185" width="35" height="115" fill="#7a4a20" stroke="#111" stroke-width="5"/><text x="462" y="168" font-family="Arial, Helvetica, sans-serif" font-size="26" font-weight="900" text-anchor="middle" fill="#fff">DENIED</text><line x1="240" y1="220" x2="360" y2="210" stroke="#111" stroke-width="8" stroke-linecap="round" marker-end="url(#arrow)"/>
<rect x="55" y="322" width="610" height="42" rx="10" fill="#111"/><text x="360" y="350" font-family="Arial, Helvetica, sans-serif" font-size="21" font-weight="900" text-anchor="middle" fill="#ffd34d">Request info skipped → DENIED</text>
<text x="360" y="393" font-family="Arial, Helvetica, sans-serif" font-size="13" font-weight="700" text-anchor="middle" fill="#111">Fake-world scenario. No real voucher, person, payment, case, or official workflow.</text></svg>
