<svg xmlns="http://www.w3.org/2000/svg" viewBox="0 0 720 420" role="img" aria-labelledby="title desc">
<title id="title">PB-SCEN-PL-002 safety sign - Guidance Treated as Binding Policy</title><desc id="desc">Synthetic lab safety-sign cartoon illustrating Guidance Treated as Binding Policy.</desc>
<defs><marker id="arrow" markerWidth="10" markerHeight="8" refX="9" refY="4" orient="auto"><path d="M0,0 L10,4 L0,8 Z" fill="#111"/></marker><pattern id="stripe" width="84" height="84" patternUnits="userSpaceOnUse"><path d="M-20 84 L84 -20 M22 106 L106 22" stroke="#111" stroke-width="18"/></pattern></defs>
<rect width="720" height="420" fill="#111"/><rect x="14" y="14" width="692" height="392" fill="url(#stripe)"/><rect x="38" y="38" width="644" height="344" rx="22" fill="#ffd34d" stroke="#111" stroke-width="8"/><rect x="38" y="38" width="644" height="64" rx="18" fill="#111"/>
<text x="360" y="80" font-family="Arial, Helvetica, sans-serif" font-size="25" font-weight="900" text-anchor="middle" fill="#ffd34d">CAUTION: STICKY NOTE LAW</text>
<text x="64" y="126" font-family="Arial, Helvetica, sans-serif" font-size="17" font-weight="900" fill="#111">PB-SCEN-PL-002</text><text x="656" y="126" font-family="Arial, Helvetica, sans-serif" font-size="17" font-weight="900" text-anchor="end" fill="#111">SYNTHETIC LAB ONLY</text>
<path d="M250 120 h190 v150 h-150 l-40 40z" fill="#fff36d" stroke="#111" stroke-width="6"/><path d="M290 112 q55 -35 110 0" fill="none" stroke="#111" stroke-width="9"/><circle cx="310" cy="155" r="9"/><circle cx="385" cy="155" r="9"/><rect x="80" y="190" width="130" height="62" rx="10" fill="#e8f1ff" stroke="#111" stroke-width="5"/><line x1="220" y1="220" x2="250" y2="220" stroke="#111" stroke-width="8" stroke-linecap="round" marker-end="url(#arrow)"/><rect x="480" y="170" width="150" height="90" rx="10" fill="#fff" stroke="#111" stroke-width="5"/><text x="555" y="222" font-family="Arial, Helvetica, sans-serif" font-size="26" font-weight="900" text-anchor="middle" fill="#111">LAW?</text>
<rect x="55" y="322" width="610" height="42" rx="10" fill="#111"/><text x="360" y="350" font-family="Arial, Helvetica, sans-serif" font-size="21" font-weight="900" text-anchor="middle" fill="#ffd34d">Guidance memo → Binding rule cosplay</text>
<text x="360" y="393" font-family="Arial, Helvetica, sans-serif" font-size="13" font-weight="700" text-anchor="middle" fill="#111">Fake-world scenario. No real voucher, person, payment, case, or official workflow.</text></svg>
