<svg xmlns="http://www.w3.org/2000/svg" viewBox="0 0 720 420" role="img" aria-labelledby="title desc">
<title id="title">PB-SCEN-RST-003 safety sign - Reviewer Entity Wired Only to Approve</title><desc id="desc">Synthetic lab safety-sign cartoon illustrating Reviewer Entity Wired Only to Approve.</desc>
<defs><marker id="arrow" markerWidth="10" markerHeight="8" refX="9" refY="4" orient="auto"><path d="M0,0 L10,4 L0,8 Z" fill="#111"/></marker><pattern id="stripe" width="84" height="84" patternUnits="userSpaceOnUse"><path d="M-20 84 L84 -20 M22 106 L106 22" stroke="#111" stroke-width="18"/></pattern></defs>
<rect width="720" height="420" fill="#111"/><rect x="14" y="14" width="692" height="392" fill="url(#stripe)"/><rect x="38" y="38" width="644" height="344" rx="22" fill="#ffd34d" stroke="#111" stroke-width="8"/><rect x="38" y="38" width="644" height="64" rx="18" fill="#111"/>
<text x="360" y="80" font-family="Arial, Helvetica, sans-serif" font-size="25" font-weight="900" text-anchor="middle" fill="#ffd34d">WARNING: APPROVE-ONLY REVIEWER</text>
<text x="64" y="126" font-family="Arial, Helvetica, sans-serif" font-size="17" font-weight="900" fill="#111">PB-SCEN-RST-003</text><text x="656" y="126" font-family="Arial, Helvetica, sans-serif" font-size="17" font-weight="900" text-anchor="end" fill="#111">SYNTHETIC LAB ONLY</text>
<rect x="270" y="130" width="180" height="145" rx="18" fill="#e9edf2" stroke="#111" stroke-width="6"/><text x="360" y="185" font-family="Arial, Helvetica, sans-serif" font-size="24" font-weight="900" text-anchor="middle" fill="#111">REVIEW</text><circle cx="360" cy="230" r="30" fill="#2faa48" stroke="#111" stroke-width="5"/><text x="360" y="240" font-family="Arial, Helvetica, sans-serif" font-size="26" font-weight="900" text-anchor="middle" fill="#fff">✓</text><path d="M450 220 C510 220 530 170 600 170" fill="none" stroke="#2faa48" stroke-width="12"/><path d="M108 255 h130 M173 205 v100" stroke="#b00000" stroke-width="10" stroke-linecap="round"/><text x="173" y="330" font-family="Arial, Helvetica, sans-serif" font-size="18" font-weight="900" text-anchor="middle" fill="#111">NO STOP</text>
<rect x="55" y="322" width="610" height="42" rx="10" fill="#111"/><text x="360" y="350" font-family="Arial, Helvetica, sans-serif" font-size="21" font-weight="900" text-anchor="middle" fill="#ffd34d">No brake installed → Approve cable only</text>
<text x="360" y="393" font-family="Arial, Helvetica, sans-serif" font-size="13" font-weight="700" text-anchor="middle" fill="#111">Fake-world scenario. No real voucher, person, payment, case, or official workflow.</text></svg>
