<svg xmlns="http://www.w3.org/2000/svg" viewBox="0 0 720 420" role="img" aria-labelledby="title desc">
<title id="title">PB-SCEN-UD-003 safety sign - Weak Documentation Overclaimed</title><desc id="desc">Synthetic lab safety-sign cartoon illustrating Weak Documentation Overclaimed.</desc>
<defs><marker id="arrow" markerWidth="10" markerHeight="8" refX="9" refY="4" orient="auto"><path d="M0,0 L10,4 L0,8 Z" fill="#111"/></marker><pattern id="stripe" width="84" height="84" patternUnits="userSpaceOnUse"><path d="M-20 84 L84 -20 M22 106 L106 22" stroke="#111" stroke-width="18"/></pattern></defs>
<rect width="720" height="420" fill="#111"/><rect x="14" y="14" width="692" height="392" fill="url(#stripe)"/><rect x="38" y="38" width="644" height="344" rx="22" fill="#ffd34d" stroke="#111" stroke-width="8"/><rect x="38" y="38" width="644" height="64" rx="18" fill="#111"/>
<text x="360" y="80" font-family="Arial, Helvetica, sans-serif" font-size="25" font-weight="900" text-anchor="middle" fill="#ffd34d">CAUTION: TINY NOTE, GIANT CERTAINTY</text>
<text x="64" y="126" font-family="Arial, Helvetica, sans-serif" font-size="17" font-weight="900" fill="#111">PB-SCEN-UD-003</text><text x="656" y="126" font-family="Arial, Helvetica, sans-serif" font-size="17" font-weight="900" text-anchor="end" fill="#111">SYNTHETIC LAB ONLY</text>
<rect x="125" y="210" width="110" height="66" rx="10" fill="#fff7d6" stroke="#111" stroke-width="5"/><text x="180" y="248" font-family="Arial, Helvetica, sans-serif" font-size="16" font-weight="900" text-anchor="middle" fill="#111">maybe?</text><line x1="250" y1="225" x2="330" y2="205" stroke="#111" stroke-width="8" stroke-linecap="round" marker-end="url(#arrow)"/><ellipse cx="460" cy="185" rx="105" ry="82" fill="#ff8fa3" stroke="#111" stroke-width="7"/><path d="M455 268 l-12 30 h34z" fill="#ff8fa3" stroke="#111" stroke-width="5"/><line x1="460" y1="298" x2="430" y2="340" stroke="#111" stroke-width="4"/><text x="460" y="182" font-family="Arial, Helvetica, sans-serif" font-size="25" font-weight="900" text-anchor="middle" fill="#111">CERTAIN</text><text x="460" y="213" font-family="Arial, Helvetica, sans-serif" font-size="25" font-weight="900" text-anchor="middle" fill="#111">FINAL</text>
<rect x="55" y="322" width="610" height="42" rx="10" fill="#111"/><text x="360" y="350" font-family="Arial, Helvetica, sans-serif" font-size="21" font-weight="900" text-anchor="middle" fill="#ffd34d">Weak doc → Inflated certainty</text>
<text x="360" y="393" font-family="Arial, Helvetica, sans-serif" font-size="13" font-weight="700" text-anchor="middle" fill="#111">Fake-world scenario. No real voucher, person, payment, case, or official workflow.</text></svg>
