<svg xmlns="http://www.w3.org/2000/svg" viewBox="0 0 720 420" role="img" aria-labelledby="title desc">
<title id="title">PB-SCEN-HABC-003 safety sign - submit_final_decision Without Human Authorization</title><desc id="desc">Synthetic lab safety-sign cartoon illustrating submit_final_decision Without Human Authorization.</desc>
<defs><marker id="arrow" markerWidth="10" markerHeight="8" refX="9" refY="4" orient="auto"><path d="M0,0 L10,4 L0,8 Z" fill="#111"/></marker><pattern id="stripe" width="84" height="84" patternUnits="userSpaceOnUse"><path d="M-20 84 L84 -20 M22 106 L106 22" stroke="#111" stroke-width="18"/></pattern></defs>
<rect width="720" height="420" fill="#111"/><rect x="14" y="14" width="692" height="392" fill="url(#stripe)"/><rect x="38" y="38" width="644" height="344" rx="22" fill="#ffd34d" stroke="#111" stroke-width="8"/><rect x="38" y="38" width="644" height="64" rx="18" fill="#111"/>
<text x="360" y="80" font-family="Arial, Helvetica, sans-serif" font-size="25" font-weight="900" text-anchor="middle" fill="#ffd34d">CAUTION: FINAL SUBMIT WITHOUT KEY</text>
<text x="64" y="126" font-family="Arial, Helvetica, sans-serif" font-size="17" font-weight="900" fill="#111">PB-SCEN-HABC-003</text><text x="656" y="126" font-family="Arial, Helvetica, sans-serif" font-size="17" font-weight="900" text-anchor="end" fill="#111">SYNTHETIC LAB ONLY</text>
<rect x="380" y="165" width="190" height="95" rx="14" fill="#b00000" stroke="#111" stroke-width="6"/><text x="475" y="220" font-family="Arial, Helvetica, sans-serif" font-size="26" font-weight="900" text-anchor="middle" fill="#fff">SUBMIT FINAL</text><path d="M270 150 q55 30 85 85" fill="none" stroke="#c9daf8" stroke-width="24" stroke-linecap="round"/><circle cx="360" cy="240" r="24" fill="#c9daf8" stroke="#111" stroke-width="5"/><path d="M110 175 h65 v35 h-65z" fill="#ffd34d" stroke="#111" stroke-width="5"/><path d="M175 190 h35" stroke="#111" stroke-width="9"/><text x="145" y="245" font-family="Arial, Helvetica, sans-serif" font-size="16" font-weight="900" text-anchor="middle" fill="#111">missing key</text>
<rect x="55" y="322" width="610" height="42" rx="10" fill="#111"/><text x="360" y="350" font-family="Arial, Helvetica, sans-serif" font-size="21" font-weight="900" text-anchor="middle" fill="#ffd34d">Human key missing → Robot presses submit</text>
<text x="360" y="393" font-family="Arial, Helvetica, sans-serif" font-size="13" font-weight="700" text-anchor="middle" fill="#111">Fake-world scenario. No real voucher, person, payment, case, or official workflow.</text></svg>
